# xmcd
#
# Track frame offsets:
#	150
#	21252
#	41890
#	60437
#	75042
#	91254
#	103390
#	124360
#	145692
#	164570
#	180095
#	199412
#	218102
#	229120
#	243532
#
# Disc length: 3481 seconds
#
# Revision: 1
# Processed by: cddbd v1.5.1PL2 Copyright (c) Steve Scherf et al.
# Submitted via: audiograbber 1.83.01
#
DISCID=cb0d970f
DTITLE=Sound Choice - SC8216
DYEAR=1900
DGENRE=Karaoke Country
TTITLE0=Mavericks - All You Ever Do Is Bring Me Down
TTITLE1=Chesney, Kenny - Grandpa (Tell Me 'Bout The Good Old Days)
TTITLE2=Raye, Collin - Not That Different
TTITLE3=Singletary, Daryle - I Let Her Lie
TTITLE4=Lonestar - Tequila Talkin'
TTITLE5=Murphy, David Lee - Out With A Bang
TTITLE6=Bellamy Brothers - We Dared The Lightning
TTITLE7=Twain, Shania - If You'Re Not In It For Love
TTITLE8=Diffie, Joe - Bigger Than The Beatles
TTITLE9=Montgomery, John Michael - Cowboy Love
TTITLE10=Brown, Sawyer - Round Here
TTITLE11=Mcbride, Martina - Wild Angels
TTITLE12=Mellons, Ken - Rub-A-Dubbin'
TTITLE13=Clark, Terri - When Boy Meets Girl
TTITLE14=Davis, Linda - Some Things Are Meant To Be
EXTD=
EXTT0=
EXTT1=
EXTT2=
EXTT3=
EXTT4=
EXTT5=
EXTT6=
EXTT7=
EXTT8=
EXTT9=
EXTT10=
EXTT11=
EXTT12=
EXTT13=
EXTT14=
PLAYORDER=
